<?xml version="1.0" standalone="no"?>
<!DOCTYPE svg PUBLIC "-//W3C//DTD SVG 20010904//EN"
 "http://www.w3.org/TR/2001/REC-SVG-20010904/DTD/svg10.dtd">
<svg version="1.0" xmlns="http://www.w3.org/2000/svg"
 width="70.000000pt" height="70.000000pt" viewBox="0 0 70.000000 70.000000"
 preserveAspectRatio="xMidYMid meet">
<metadata>
Created by potrace 1.11, written by Peter Selinger 2001-2013
</metadata>
<g transform="translate(0.000000,70.000000) scale(0.100000,-0.100000)"
fill="#000000" stroke="none">
<path d="M140 649 c0 -6 11 -24 25 -41 24 -29 30 -45 56 -163 13 -54 18 -62
52 -78 50 -25 47 -37 -9 -37 -39 0 -45 3 -40 18 8 26 -5 39 -53 52 -59 15 -64
5 -9 -19 36 -15 45 -24 44 -42 -1 -22 4 -24 52 -27 82 -5 61 -17 -34 -20 -101
-2 -139 -16 -139 -52 0 -23 3 -25 50 -25 28 0 64 3 81 7 l31 7 -7 -40 c-4 -22
-9 -41 -11 -43 -2 -1 -21 -13 -41 -25 -36 -21 -49 -41 -29 -41 5 0 29 15 53
33 31 24 44 41 46 63 2 21 12 36 33 48 33 20 49 15 29 -9 -8 -10 -9 -15 -1
-15 7 0 11 -21 11 -54 0 -51 11 -78 24 -58 3 5 6 41 8 80 1 40 4 72 5 72 2 0
17 -10 33 -22 23 -17 27 -25 19 -39 -13 -25 0 -44 67 -98 76 -61 80 -43 6 25
-55 49 -60 57 -49 75 10 17 9 23 -13 38 -24 19 -23 19 30 5 30 -8 73 -13 95
-12 35 3 40 6 40 28 0 30 -35 50 -89 50 -32 0 -37 2 -26 15 6 8 9 18 6 23 -10
16 16 29 72 37 75 10 66 28 -10 20 -63 -7 -78 -15 -78 -47 0 -22 -19 -33 -33
-19 -6 6 -21 11 -34 11 -33 0 -28 22 9 41 35 17 43 36 53 122 5 42 16 71 41
108 36 54 39 75 6 43 -36 -36 -62 -96 -73 -167 -13 -79 -14 -82 -45 -91 -15
-5 -21 -2 -21 11 1 61 -4 84 -19 90 -25 9 -44 -24 -44 -74 l0 -44 -27 15 c-24
12 -31 26 -47 98 -19 86 -32 117 -65 156 -21 24 -31 28 -31 11z m286 -350 c3
-5 -6 -9 -20 -9 -24 0 -41 12 -30 23 7 7 43 -3 50 -14z"/>
</g>
</svg>
